# xmcd CD database file
#
# Track frame offsets:
#	150
#	16260
#	29628
#	43710
#	55840
#	74023
#	84608
#	96211
#	119170
#	129803
#	141171
#	159837
#	179725
#	197211
#	215309
#	229198
#	240101
#	249614
#
# Disc length: 3642 seconds
#
# Revision: 0
# Processed by: cddbd v1.4PL0 Copyright (c) Steve Scherf et al.
# Submitted via: CDex 1.40Release
#
DISCID=010e3812
DTITLE=Various Artist - The Music of South America
DYEAR=1999
DGENRE=Native American
TTITLE0=Baia
TTITLE1=Papagayo
TTITLE2=Piel Canela
TTITLE3=Cabuyaro
TTITLE4=Tao Sertao
TTITLE5=Totoras
TTITLE6=Noche En Blanco
TTITLE7=Colcaleros
TTITLE8=Arc-En-Ciel
TTITLE9=Salada
TTITLE10=Buenos
TTITLE11=Imbaya
TTITLE12=A Bossa Da Diana
TTITLE13=Altiplano
TTITLE14=Porque Culitvas
TTITLE15=Que Pasa
TTITLE16=Sunset Samba
TTITLE17=Bailarin
EXTD=YEAR: 1999 ID3G: 64
EXTT0=
EXTT1=
EXTT2=
EXTT3=
EXTT4=
EXTT5=
EXTT6=
EXTT7=
EXTT8=
EXTT9=
EXTT10=
EXTT11=
EXTT12=
EXTT13=
EXTT14=
EXTT15=
EXTT16=
EXTT17=
PLAYORDER=
